<?xml version="1.0" encoding="utf-8"?><svg xmlns="http://www.w3.org/2000/svg" xmlns:xlink="http://www.w3.org/1999/xlink" width="2000" height="760" preserveAspectRatio="xMidYMid" viewBox="0 0 2000 760" style="z-index:1;margin-right:-2px;display:block;animation-play-state:paused" ><g transform="translate(1000,380) scale(1,1) translate(-1000,-380)" style="transform:matrix(1, 0, 0, 1, 0, 0);animation-play-state:paused" ><defs style="animation-play-state:paused" ><filter id="blur-29yk3m7zrro-1" x="-1" y="-1" width="3" height="3" style="animation-play-state:paused" ><feGaussianBlur stdDeviation="3" style="animation-play-state:paused" ></feGaussianBlur></filter>
<filter id="blur-29yk3m7zrro-2" x="-1" y="-1" width="3" height="3" style="animation-play-state:paused" ><feGaussianBlur stdDeviation="1.5" style="animation-play-state:paused" ></feGaussianBlur></filter>
<filter id="blur-29yk3m7zrro-3" x="-1" y="-1" width="3" height="3" style="animation-play-state:paused" ><feGaussianBlur stdDeviation="1" style="animation-play-state:paused" ></feGaussianBlur></filter></defs>
<circle cx="262.92459267479586" cy="0" transform="matrix(1,0,0,1,0,323.936279296875)" r="32.41852741085761" fill="#dfeafa" opacity="0.63" style="transform:matrix(1, 0, 0, 1, 0, 323.936);opacity:0.63;animation-play-state:paused" ></circle>
<circle cx="1401.8613303725479" cy="0" transform="matrix(1,0,0,1,0,364.0193786621094)" r="39.23715958232554" fill="#9fc3f1" opacity="0.7200000000000001" style="transform:matrix(1, 0, 0, 1, 0, 364.019);opacity:0.72;animation-play-state:paused" ></circle>
<circle cx="1428.1001121097993" cy="0" transform="matrix(1,0,0,1,0,425.20574951171875)" r="37.016637061782994" fill="#9fc3f1" opacity="0.7200000000000001" style="transform:matrix(1, 0, 0, 1, 0, 425.206);opacity:0.72;animation-play-state:paused" ></circle>
<circle cx="1764.3280800517832" cy="0" transform="matrix(1,0,0,1,0,387.3954162597656)" r="35.47369005032286" fill="#dfeafa" opacity="0.7200000000000001" style="transform:matrix(1, 0, 0, 1, 0, 387.395);opacity:0.72;animation-play-state:paused" ></circle>
<circle cx="296.7588657307472" cy="0" transform="matrix(1,0,0,1,0,106.33062744140625)" r="16.82704998492448" fill="#9fc3f1" opacity="0.36000000000000004" style="transform:matrix(1, 0, 0, 1, 0, 106.331);opacity:0.36;animation-play-state:paused" ></circle>
<circle cx="322.66879626825107" cy="0" transform="matrix(1,0,0,1,0,483.460693359375)" r="18.633101073707877" fill="#dfeafa" opacity="0.36000000000000004" style="transform:matrix(1, 0, 0, 1, 0, 483.461);opacity:0.36;animation-play-state:paused" ></circle>
<circle cx="994.5485456286294" cy="0" transform="matrix(1,0,0,1,0,518.7366943359375)" r="32.138773827188984" fill="#dfeafa" opacity="0.63" style="transform:matrix(1, 0, 0, 1, 0, 518.737);opacity:0.63;animation-play-state:paused" ></circle>
<circle cx="1964.220834232878" cy="0" transform="matrix(1,0,0,1,0,797.9989624023438)" r="43.04136052880327" fill="#9fc3f1" opacity="0.7200000000000001" style="transform:matrix(1, 0, 0, 1, 0, 797.999);opacity:0.72;animation-play-state:paused" ></circle>
<circle cx="1802.5072070773672" cy="0" transform="matrix(1,0,0,1,0,443.6746826171875)" r="21.218545177022357" fill="#dfeafa" opacity="0.36000000000000004" style="transform:matrix(1, 0, 0, 1, 0, 443.675);opacity:0.36;animation-play-state:paused" ></circle>
<circle cx="1224.5986371527433" cy="0" transform="matrix(1,0,0,1,0,661.09619140625)" r="42.48885634812234" fill="#dfeafa" opacity="0.7200000000000001" style="transform:matrix(1, 0, 0, 1, 0, 661.096);opacity:0.72;animation-play-state:paused" ></circle>
<circle cx="875.4070774048137" cy="0" transform="matrix(1,0,0,1,0,228.87298583984375)" r="43.45897054596378" fill="#9fc3f1" opacity="0.7200000000000001" style="transform:matrix(1, 0, 0, 1, 0, 228.873);opacity:0.72;animation-play-state:paused" ></circle>
<circle cx="1104.4563441284577" cy="0" transform="matrix(1,0,0,1,0,716.1006469726562)" r="22.38858004670702" fill="#9fc3f1" opacity="0.36000000000000004" style="transform:matrix(1, 0, 0, 1, 0, 716.101);opacity:0.36;animation-play-state:paused" ></circle>
<circle cx="894.4991454150477" cy="0" transform="matrix(1,0,0,1,0,653.3038330078125)" r="43.5857491646279" fill="#9fc3f1" opacity="0.7200000000000001" style="transform:matrix(1, 0, 0, 1, 0, 653.304);opacity:0.72;animation-play-state:paused" ></circle>
<circle cx="143.43903875288964" cy="0" transform="matrix(1,0,0,1,0,254.726318359375)" r="16.66759075858478" fill="#c6daf7" opacity="0.36000000000000004" style="transform:matrix(1, 0, 0, 1, 0, 254.726);opacity:0.36;animation-play-state:paused" ></circle>
<circle cx="1704.5268787772918" cy="0" transform="matrix(1,0,0,1,0,730.2332153320312)" r="15.93961522753505" fill="#c6daf7" opacity="0.36000000000000004" style="transform:matrix(1, 0, 0, 1, 0, 730.233);opacity:0.36;animation-play-state:paused" ></circle>
<circle cx="53.009111183553784" cy="0" transform="matrix(1,0,0,1,0,101.6385498046875)" r="20.764649946033863" fill="#c6daf7" opacity="0.36000000000000004" style="transform:matrix(1, 0, 0, 1, 0, 101.639);opacity:0.36;animation-play-state:paused" ></circle>
<circle cx="1289.7689551990316" cy="0" transform="matrix(1,0,0,1,0,16.31622314453125)" r="35.852210625210304" fill="#9fc3f1" opacity="0.7200000000000001" style="transform:matrix(1, 0, 0, 1, 0, 16.3162);opacity:0.72;animation-play-state:paused" ></circle>
<circle cx="1791.4215774174575" cy="0" transform="matrix(1,0,0,1,0,401.4364929199219)" r="29.17167025021704" fill="#9fc3f1" opacity="0.63" style="transform:matrix(1, 0, 0, 1, 0, 401.436);opacity:0.63;animation-play-state:paused" ></circle>
<circle cx="866.9269587343132" cy="0" transform="matrix(1,0,0,1,0,321.93402099609375)" r="27.243432072099086" fill="#c6daf7" opacity="0.63" style="transform:matrix(1, 0, 0, 1, 0, 321.934);opacity:0.63;animation-play-state:paused" ></circle>
<circle cx="673.0802699457024" cy="0" transform="matrix(1,0,0,1,0,725.991943359375)" r="11.645930375069423" fill="#dfeafa" opacity="0.36000000000000004" style="transform:matrix(1, 0, 0, 1, 0, 725.992);opacity:0.36;animation-play-state:paused" ></circle>
<circle cx="1631.5987443106271" cy="0" transform="matrix(1,0,0,1,0,388.39288330078125)" r="16.436127193016183" fill="#9fc3f1" opacity="0.36000000000000004" style="transform:matrix(1, 0, 0, 1, 0, 388.393);opacity:0.36;animation-play-state:paused" ></circle>
<circle cx="1337.1602940303812" cy="0" transform="matrix(1,0,0,1,0,207.5291748046875)" r="34.51488538280234" fill="#c6daf7" opacity="0.7200000000000001" style="transform:matrix(1, 0, 0, 1, 0, 207.529);opacity:0.72;animation-play-state:paused" ></circle>
<circle cx="92.07946803541" cy="0" transform="matrix(1,0,0,1,0,674.1178588867188)" r="42.92690544969125" fill="#dfeafa" opacity="0.7200000000000001" style="transform:matrix(1, 0, 0, 1, 0, 674.118);opacity:0.72;animation-play-state:paused" ></circle>
<circle cx="268.8918761264181" cy="0" transform="matrix(1,0,0,1,0,131.9222412109375)" r="31.108721910280366" fill="#c6daf7" opacity="0.63" style="transform:matrix(1, 0, 0, 1, 0, 131.922);opacity:0.63;animation-play-state:paused" ></circle></g></svg>