<svg xmlns="http://www.w3.org/2000/svg" version="1.1" xmlns:xlink="http://www.w3.org/1999/xlink" xmlns:svgjs="http://svgjs.dev/svgjs" width="1280" height="765" preserveAspectRatio="none" viewBox="0 0 1280 765"><g mask="url(&quot;#SvgjsMask1776&quot;)" fill="none"><rect width="1280" height="765" x="0" y="0" fill="rgba(27, 32, 50, 1)"></rect><path d="M0,407.225C74.328,397.726,118.489,322.967,181.913,283.063C246.171,242.635,328.929,231.587,375.033,171.272C425.961,104.646,460.737,18.468,447.459,-64.335C434.233,-146.816,369.592,-211.255,305.168,-264.43C247.538,-311.997,173.052,-324.46,102.495,-349.066C27.706,-375.148,-43.779,-429.344,-121.315,-413.162C-200.043,-396.731,-259.947,-330.856,-304.753,-264.07C-346.415,-201.971,-363.647,-127.035,-363.445,-52.255C-363.261,15.815,-328.175,75.175,-303.664,138.679C-277.39,206.752,-269.129,285.381,-214.469,333.72C-156.688,384.818,-76.512,417.003,0,407.225" fill="#161a28"></path><path d="M1280 1152.964C1363.345 1166.336 1460.919 1202.157 1528.098 1151.048 1595.969 1099.413 1577.358 993.105 1598.664 910.529 1615.83 843.998 1640.78 781.791 1641.099 713.082 1641.461 635 1648.179 549.11 1600.628 487.175 1552.498 424.485 1468.398 402.853 1390.923 387.229 1318.135 372.55 1241.595 372.27 1173.107 400.956 1108.371 428.071 1073.534 493.744 1022.242 541.6510000000001 963.4680000000001 596.546 879.0360000000001 628.275 849.598 703.117 817.9110000000001 783.676 813.7080000000001 883.446 858.713 957.395 903.098 1030.325 1000.846 1042.93 1078.283 1078.878 1144.597 1109.662 1207.812 1141.382 1280 1152.964" fill="#20263c"></path></g><defs><mask id="SvgjsMask1776"><rect width="1280" height="765" fill="#ffffff"></rect></mask></defs></svg>