<svg width="1280" height="4270" viewBox="0 0 1280 4270" fill="none" xmlns="http://www.w3.org/2000/svg">
<mask id="mask0_88_25" style="mask-type:luminance" maskUnits="userSpaceOnUse" x="0" y="0" width="1280" height="4270">
<path d="M1280 0H0V4270H1280V0Z" fill="white"/>
</mask>
<g mask="url(#mask0_88_25)">
<path d="M1280 0H0V2781H1280V0Z" fill="#1B2032"/>
<path d="M-288.973 801.784C4.01062 767.362 241.095 586.222 509.818 464.517C832.324 318.454 1258.25 313.665 1448.31 14.9648C1639.18 -285.007 1549.79 -685.78 1460.76 -1030C1378.07 -1349.67 1209.94 -1644.17 962.594 -1862.92C733.123 -2065.85 418.948 -2103.8 130.362 -2206.55C-178.253 -2316.43 -466.675 -2535.34 -790.709 -2487.18C-1128.35 -2437 -1419.88 -2209.76 -1634.42 -1944.27C-1844.92 -1683.79 -1908.81 -1349.1 -1975.61 -1020.93C-2046.27 -673.853 -2178.94 -304.68 -2033.98 18.491C-1888.83 342.093 -1541.8 522.304 -1218.24 667.544C-926.814 798.359 -606.232 839.058 -288.973 801.784Z" fill="#161A28"/>
<path d="M1196.07 5087.83C1534.97 5118.63 1877.71 5059.91 2178.72 4901.17C2496.62 4733.52 2803.23 4500.9 2939.59 4168.37C3074.18 3840.14 3024.31 3460.84 2906.58 3126.19C2801.04 2826.19 2527.24 2639.47 2317.59 2400.33C2109.39 2162.86 1965.95 1858.92 1679.32 1726.34C1372.73 1584.52 1019.05 1572.62 689.61 1647.29C347.161 1724.9 -31.1883 1851.77 -209.288 2154.38C-384.624 2452.3 -135.671 2832.14 -206.812 3170.43C-285.816 3546.1 -764.972 3847.88 -641.902 4211.5C-522.41 4564.56 -14.5873 4572.02 321.855 4732.43C611.667 4870.61 876.318 5058.78 1196.07 5087.83Z" fill="#20263C"/>
<path d="M1075.17 4560.43C782.218 4543.31 545.159 4453.2 276.466 4392.66C-46.0055 4320.01 -471.888 4317.63 -661.926 4169.04C-852.774 4019.83 -763.394 3820.47 -674.37 3649.24C-591.695 3490.23 -423.581 3343.73 -176.262 3234.92C53.1839 3133.98 367.326 3115.1 655.88 3063.99C964.462 3009.33 1252.85 2900.44 1576.85 2924.39C1914.45 2949.35 2205.95 3062.39 2420.47 3194.46C2630.95 3324.03 2694.83 3490.51 2761.63 3653.76C2832.27 3826.4 2964.93 4010.04 2819.99 4170.8C2674.85 4331.77 2327.86 4421.41 2004.34 4493.66C1712.94 4558.73 1392.39 4578.97 1075.17 4560.43Z" fill="#1B2032"/>
</g>
</svg>
