<svg xmlns="http://www.w3.org/2000/svg" height="16" width="16" viewBox="0 0 512 512" fill="#6DAB64">
  <!--!Font Awesome Free 6.5.1 by @fontawesome - https://fontawesome.com License - https://fontawesome.com/license/free Copyright 2023 Fonticons, Inc.-->
  <path d="M305.4 462.6c7.4 7.3 6.2 20.1-3 25-77.7 41.8-176.7 29.9-242.3-35.7C-5.5 386.3-17.4 287.4 24.4 209.6c4.9-9.1 17.7-10.3 25-3L166.2 323.4l27.4-27.4c-.7-2.6-1.6-5-1.6-7.8a32 32 0 1 1 32 32c-2.8 0-5.2-.9-7.8-1.6l-27.4 27.4zM512 303.1a16.1 16.1 0 0 1 -16 17H463.9a16 16 0 0 1 -15.9-15C440.5 175.5 336.5 70.5 207 63.5a15.8 15.8 0 0 1 -15-15.9V16A16.1 16.1 0 0 1 209 0C372.3 8.6 503.5 139.8 512 303.1zm-96-.3a16.2 16.2 0 0 1 -16.1 17.3H367.6a16.1 16.1 0 0 1 -15.9-14.7c-6.9-77-68.1-138.9-144.9-145.2a15.9 15.9 0 0 1 -14.8-15.9V112.1a16.1 16.1 0 0 1 17.3-16.1C319.5 104.5 407.6 192.6 416 302.8z"/>
</svg>