<?xml version="1.0" encoding="UTF-8"?>
<svg xmlns="http://www.w3.org/2000/svg" width="34" height="34" viewBox="0 0 34 34" fill="none">
  <rect x="1" y="1" width="32" height="32" rx="8" fill="#64748B"/>
  <path d="M27.4805 13.125V6.84799L25.3984 8.93009C23.3391 6.96479 20.5813 5.83439 17.6852 5.83439C11.5281 5.83439 6.51953 10.8437 6.51953 17C6.51953 23.157 11.5281 28.1648 17.6852 28.1648C19.6602 28.1648 21.6023 27.6426 23.3008 26.6523C24.923 25.707 26.2891 24.3586 27.2566 22.7488H23.7656C22.2004 24.3976 19.9988 25.3711 17.6852 25.3711C13.0691 25.3711 9.31445 21.6152 9.31445 17C9.31445 12.3844 13.0691 8.62929 17.6852 8.62929C19.834 8.62929 21.8828 9.45939 23.4219 10.9066L21.2031 13.125H27.4805Z" fill="#f1f5f9"/>
</svg>